# xmcd
#
# Track frame offsets:
#	150
#	14651
#	30210
#	46316
#	64700
#	79352
#	97970
#	112444
#	127905
#	145069
#	159104
#	174961
#	192305
#	213425
#	228114
#	245370
#	259192
#	279064
#	294049
#	314904
#	329848
#
# Disc length: 4659 seconds
#
# Revision: 1
# Processed by: cddbd v1.5.1PL2 Copyright (c) Steve Scherf et al.
# Submitted via: audiograbber 1.83.01
#
DISCID=24123115
DTITLE=Various Artist - Hit Explosion 2005-11 CD2
DYEAR=2005
DGENRE=Top 40
TTITLE0=Roy gates - We Rock Together
TTITLE1=Mylo vs Miami Sound Machine - Doctor Pressure
TTITLE2=Belle Perez - Dime
TTITLE3=Destiny's Child - Cater 2 U
TTITLE4=Katie Melua - Nine Million Bicyclets
TTITLE5=Depeche Mode - Precious
TTITLE6=Albert West - Knock 3 Times
TTITLE7=Daniel Hoppe - Love and Pride 2005
TTITLE8=Paul van Dyk - The Other Side
TTITLE9=Lyis - Hihihi
TTITLE10=KT Tunstall - Other Side Of The World
TTITLE11=David Banner - Play
TTITLE12=Christian Waltz - Wonderchild
TTITLE13=Kelly Clarkson - Behind These Hazel Eyes
TTITLE14=DHT ft Esmee - Listen To Your Heart
TTITLE15=Uniting Nations - You And Me
TTITLE16=Dynamite - Judgement Day
TTITLE17=U2 - All Because Of You
TTITLE18=The Party Squad - Wat Wil Je Doen
TTITLE19=K3 - Borst Vooruit
TTITLE20=Alderliefste - Laat Me
EXTD=
EXTT0=
EXTT1=
EXTT2=
EXTT3=
EXTT4=
EXTT5=
EXTT6=
EXTT7=
EXTT8=
EXTT9=
EXTT10=
EXTT11=
EXTT12=
EXTT13=
EXTT14=
EXTT15=
EXTT16=
EXTT17=
EXTT18=
EXTT19=
EXTT20=
PLAYORDER=
